# xmcd CD database file
#
# Track frame offsets:
#	150
#	24601
#	56487
#	84366
#	107515
#	134516
#
# Disc length: 2153 seconds
#
# Revision: 1
# Processed by: cddbd v1.5.1PL2 Copyright (c) Steve Scherf et al.
# Submitted via: CDex 1.50
#
DISCID=45086706
DTITLE=Sophie Lüssi - Sophie Lüssi Trio
DYEAR=2005
DGENRE=Jazz
TTITLE0=Crazy Rhythm
TTITLE1=I'll Remember April
TTITLE2=Yardbird Smile
TTITLE3=Soul Eyes
TTITLE4=Cherokee
TTITLE5=There Is No Greater Love
EXTD=YEAR: 2005
EXTT0=
EXTT1=
EXTT2=
EXTT3=
EXTT4=
EXTT5=
PLAYORDER=
